inDegrees=no
num_controls=7
num_derivatives=13
num_iterations=218
num_multipliers=7
num_parameters=0
num_slacks=7
num_states=26
objective=5.903205
objective_accelerations=0.791366
objective_balance=0.006810
objective_effort=0.530220
objective_height=4.528028
objective_ligament=0.046782
solver_duration=1809.572223
status=Solve_Succeeded
success=true
DataType=double
version=3
OpenSimVersion=4.4-2022-07-23-0e9fedc
endheader
time	/jointset/ground_pelvis/pelvis_tilt/value	/jointset/ground_pelvis/pelvis_tx/value	/jointset/ground_pelvis/pelvis_ty/value	/jointset/hip_r/hip_flexion_r/value	/jointset/hip_r/hip_adduction_r/value	/jointset/hip_r/hip_rotation_r/value	/jointset/back/lumbar_extension/value	/jointset/patellofemoral_r/patellar_flexion_r/value	/jointset/knee_r/knee_flexion_r/value	/jointset/knee_r/knee_adduction_r/value	/jointset/knee_r/knee_rotation_r/value	/jointset/ankle_r/ankle_angle_r/value	/jointset/subtalar_r/subtalar_angle_r/value	/jointset/ground_pelvis/pelvis_tilt/speed	/jointset/ground_pelvis/pelvis_tx/speed	/jointset/ground_pelvis/pelvis_ty/speed	/jointset/hip_r/hip_flexion_r/speed	/jointset/hip_r/hip_adduction_r/speed	/jointset/hip_r/hip_rotation_r/speed	/jointset/back/lumbar_extension/speed	/jointset/patellofemoral_r/patellar_flexion_r/speed	/jointset/knee_r/knee_flexion_r/speed	/jointset/knee_r/knee_adduction_r/speed	/jointset/knee_r/knee_rotation_r/speed	/jointset/ankle_r/ankle_angle_r/speed	/jointset/subtalar_r/subtalar_angle_r/speed	/forceset/tau_hip_flexion_r	/forceset/tau_hip_adduction_r	/forceset/tau_hip_rotation_r	/forceset/tau_knee_flexion_r	/forceset/tau_ankle_angle_r	/forceset/tau_subtalar_angle_r	/forceset/tau_lumbar_extension	lambda_cid13_p0	lambda_cid14_p0	lambda_cid14_p1	lambda_cid14_p2	lambda_cid14_p3	lambda_cid14_p4	lambda_cid14_p5	/jointset/ground_pelvis/pelvis_tilt/accel	/jointset/ground_pelvis/pelvis_tx/accel	/jointset/ground_pelvis/pelvis_ty/accel	/jointset/hip_r/hip_flexion_r/accel	/jointset/hip_r/hip_adduction_r/accel	/jointset/hip_r/hip_rotation_r/accel	/jointset/back/lumbar_extension/accel	/jointset/patellofemoral_r/patellar_flexion_r/accel	/jointset/knee_r/knee_flexion_r/accel	/jointset/knee_r/knee_adduction_r/accel	/jointset/knee_r/knee_rotation_r/accel	/jointset/ankle_r/ankle_angle_r/accel	/jointset/subtalar_r/subtalar_angle_r/accel	gamma_cid13_p0	gamma_cid14_p0	gamma_cid14_p1	gamma_cid14_p2	gamma_cid14_p3	gamma_cid14_p4	gamma_cid14_p5
0	0.005326053432713505	0.1251635960231018	0.9350006265575058	0.1934208783645156	-0.2070341531219988	-0.2313781488661578	-0.2903791543005566	0.2311793314021606	0.2311793314021609	0.08774774812011776	0.1504560413427084	0.08934340440958972	0.08997500363505617	0	0	0	0	0	0	0	0	0	0	0	0	0	0.1175868537674662	-0.05603510208503944	0.001957014116393675	-0.2373151963823534	0.1056329759592259	-0.04790480224581702	-0.03876377740234126	-29.13375886021142	-10.19588056906821	-19.01328173150194	-0.6326222075180548	10.45728529268397	-601.868521753275	60.86466295851849	-2.412265157813187	-2.228300155048999	-1.038428827748818	11.7898787236439	-0.1245986636047211	1.901564894717684	-6.770434464624867	11.70353567507984	11.70353567507986	-2.747884186439446	0.8709590210185186	2.963388808742876	0.7464827253207118	2.595257906175467e-08	1.782402713557788e-08	-2.263621740208273e-07	1.744062818163682e-07	4.934775572765458e-09	1.676484196056511e-07	-1.997692704638036e-07
0.01	0.005212900769214867	0.1250537342836415	0.9349501427872192	0.193994279909391	-0.2070391079045668	-0.2312833264505244	-0.2907199230437408	0.2317530241595144	0.2317530241595155	0.08761073577748436	0.1504964390564926	0.08948875098573865	0.09001303220288098	-0.02254072639964544	-0.0218461252114259	-0.01006876911889453	0.1141375886925562	-0.0009948366600275233	0.01888244135323598	-0.06768803786725595	0.1142084083262406	0.1142084083262404	-0.02725252561019874	0.008024476620556763	0.02895946880215791	0.007568834648876715	0.1133093268846795	-0.05865951209857981	0.002123969690455833	-0.2340458244278623	0.1014050360167688	-0.04394415086961224	-0.03476256894742587	-29.14142582526722	-11.3784227554311	-17.37254036142365	-1.040048689880503	10.1900943856182	-603.5932379245763	63.9754722365078	-2.161508936254871	-2.143834315157489	-0.9868696835111217	11.1442899219229	-0.08751383501679404	1.869314159414944	-6.698131832310417	11.19996674921222	11.19996674921218	-2.691466379003896	0.7599670772974664	2.845753703415682	0.7565370228795461	3.313265361002105e-08	-4.805667812459749e-09	-2.765506751640007e-07	1.635292148343545e-07	2.878200841350665e-08	-2.955508531457249e-09	-2.068921672512505e-07
0.02	0.004877034330676168	0.1247291981698733	0.9347998175798334	0.1956927755371632	-0.2070541285872977	-0.2310021335406005	-0.2917236008425051	0.2334528956676928	0.2334528956676927	0.08720569225260733	0.1506154365554286	0.08992039780740192	0.09012563975483626	-0.04454275500787164	-0.04293487486157804	-0.01996828741986803	0.2250188165795706	-0.002013180032655339	0.03727409885800714	-0.132581811115889	0.2252357501651219	0.2252357501651215	-0.05360623644814941	0.01571995703004174	0.05726004910285245	0.01491579682608902	0.1090318000018824	-0.06128392211212121	0.002290925264523815	-0.2307764524733813	0.09717709607430693	-0.0399834994934103	-0.03076136049251487	-29.16379693879871	-12.46948897672662	-15.72892637714064	-1.432918555708409	9.942739808146298	-603.8674087831939	66.83736829675865	-2.304525599529329	-2.076825042794254	-1.004578664164612	11.13860656253555	-0.12930000612478	1.803408125024721	-6.211581540900268	11.06732237760797	11.06732237760801	-2.56812123198983	0.8051597788041618	2.831611108450195	0.7021082309878257	4.031272815828742e-08	-2.743536276049737e-08	-3.267391763071741e-07	1.526521478523409e-07	5.262924125424785e-08	-1.735594366685656e-07	-2.140150640386974e-07
0.03	0.004323365790792585	0.1241975257197274	0.9345509509326604	0.1984845230892759	-0.2070795983303726	-0.2305398094273737	-0.2933619330799694	0.2362473770570664	0.2362473770570666	0.08654191834406291	0.1508099363520366	0.09063167348124533	0.09031042474137191	-0.06609522687179392	-0.06327567573414956	-0.02980661953133651	0.3327921392396095	-0.003079738392921574	0.05509418381052321	-0.1946456673239805	0.3331322903776894	0.3331322903776893	-0.07900275837562219	0.02311135286982839	0.08487917555286333	0.0220107789632903	0.1041942016942572	-0.05832931643546702	0.002430615693416336	-0.2276668420674665	0.09423932568399622	-0.04009632585763105	-0.02652955856120307	-29.19979966594506	-13.39425944339563	-15.90297693482968	-1.447285456154985	9.706938308972587	-604.0254445413374	65.72659490413059	-2.066245865016667	-1.994106072288682	-0.9737325133220887	10.5159115065714	-0.09519507090449175	1.756863910761214	-6.137942302800243	10.57157615172397	10.57157615172396	-2.503586720297936	0.6958650054730078	2.709680895059964	0.7085974886051255	4.167480556576286e-08	-4.526640846268439e-08	-3.377443662538213e-07	9.338978441053456e-08	6.827985093974784e-08	-3.165347573097329e-07	-1.717889828299021e-07
0.04	0.003557044955231168	0.1234661655682956	0.9342036465586357	0.2023378471457558	-0.2071157059210356	-0.2299021734185425	-0.2956077348079219	0.2401049751102951	0.2401049751102952	0.08562854540681002	0.1510762972108221	0.09161566391594554	0.09056524040598336	-0.08707321414343581	-0.08287241511873138	-0.03965583279017196	0.4373341174529806	-0.004140749550265483	0.072336477978886	-0.2540757092135369	0.4378590829359696	0.4378590829359694	-0.1035260421899722	0.03009216946589886	0.1118030012742115	0.02892193244124536	0.09935660338663484	-0.05537471075881337	0.002570306122300667	-0.2245572316615491	0.09130155529368653	-0.04020915222185202	-0.02229775662988929	-29.24780475304879	-14.23597275262029	-16.0754152687276	-1.447139077963303	9.477886071360039	-602.8713382756736	64.39388234712565	-2.189628681073238	-1.928012745196321	-1.006754893638005	10.49233767320201	-0.1281905655403149	1.687849968194066	-5.684818677193251	10.43337284675047	10.43337284675047	-2.393473609365271	0.7230439300609265	2.692550962717652	0.6653424991385787	4.291692426930447e-08	-6.299851294330748e-08	-3.479416528768288e-07	3.312978599017582e-08	8.376145808596451e-08	-4.589404159406746e-07	-1.285453969201534e-07
0.05	0.002583190987838348	0.1225425638079463	0.9337574471526183	0.2072213106316882	-0.2071627294630776	-0.2290950683960357	-0.2984341051741204	0.2449943983263562	0.2449943983263568	0.08447499197163098	0.1514105600428318	0.09286540911366252	0.09088785016912158	-0.1076014585173387	-0.10172138045133	-0.04960907894388719	0.5388224915307011	-0.005259629394559782	0.08897273026526804	-0.310770268202951	0.5394976440032876	0.5394976440032879	-0.1270410948376795	0.03668562269370728	0.1380288131056584	0.03557515427306964	0.0940865897664476	-0.05407959318367158	0.002762028319946861	-0.2218915633617656	0.0882523308769077	-0.03876721062644226	-0.01785580275992278	-29.30594351213385	-15.02205532718675	-15.54643391753264	-1.577601114606245	9.153999335338529	-601.8134260033524	64.51328457432118	-1.969995774881238	-1.844338074945096	-0.9934569946555245	9.896673847060917	-0.1031209914869125	1.634760877800747	-5.597560136316451	9.949901702347585	9.94990170234767	-2.309039163105944	0.6162919873846723	2.570016542742335	0.6615325485795536	4.115460895380335e-08	-7.776757585900259e-08	-3.557139488521154e-07	-8.490150731158902e-08	9.57310227509347e-08	-5.759389330129959e-07	-4.452741529765606e-08
0.06	0.001406939884839728	0.1214342724647402	0.9332109457813801	0.2131035751727983	-0.2072208186630851	-0.2281249512468768	-0.3018145782555134	0.2508843679462158	0.250884367946216	0.08309058439584767	0.1518085166007681	0.09437389647957084	0.09127623625525309	-0.127552641264537	-0.1198103316900717	-0.05971622583429802	0.6370943284885751	-0.006353881143370717	0.1049389033092689	-0.3648962522524024	0.6379683636956098	0.6379683636956108	-0.1496968703106858	0.04283091465127061	0.1635514349124702	0.04207719703990177	0.08881657614625858	-0.05278447560853068	0.002953750517590867	-0.2192258950619834	0.0852031064601281	-0.03732526903103383	-0.01341384888995704	-29.37190172468427	-15.73403594567805	-15.01495751241254	-1.696490049493373	8.821288303327375	-599.5977594174235	64.4542098143703	-2.074216355732326	-1.776009926424939	-1.037535040977124	9.849030249232715	-0.1232649464436423	1.553834119717828	-5.171103689200698	9.799804571751318	9.799804571751327	-2.221618174425072	0.6334116760119075	2.551912957790636	0.6351066861401452	3.926579115328991e-08	-9.241187912985861e-08	-3.633841399580243e-07	-2.053652761873077e-07	1.075527119430103e-07	-6.918676757039014e-07	4.120738298643063e-08
0.07000000000000001	3.338825560031514e-05	0.1201488904138473	0.9325623051655815	0.2199534829747322	-0.2072901113901969	-0.2269983076041246	-0.3057229020658895	0.257743761669435	0.2577437616694353	0.08148469180835544	0.1522656923345452	0.09613413960695667	0.09172843295614498	-0.1470626307817161	-0.1371371654800349	-0.07005479673094232	0.7323583826997518	-0.007494573291873046	0.1202583242189886	-0.4163538641539798	0.7333872458865688	0.7333872458865696	-0.1713496788346266	0.04853296844087381	0.1883812348343615	0.0483465008183451	0.08325897291182266	-0.05106803503472011	0.00317313245930177	-0.2171658050267072	0.08275925504481733	-0.03616157409876437	-0.008835110551424418	-29.44320763694463	-16.28446391624039	-14.59459445932303	-1.776467982470626	8.381679962256671	-597.6177004678251	64.17117639523843	-1.875120308135563	-1.691661500192443	-1.03859280356702	9.285764820966346	-0.1080304263128321	1.501250861563084	-5.070893090297484	9.334451953248504	9.334451953248454	-2.117392207457419	0.5278828576897702	2.431127158320374	0.6204151277709719	3.452121905949775e-08	-1.057009326736909e-07	-3.712107447455855e-07	-3.843326922657484e-07	1.174861506583272e-07	-7.882785318273855e-07	1.642129608641688e-07
0.08	-0.001532409280496098	0.1186941117460727	0.9318089639029047	0.2277401656815591	-0.2073705228542457	-0.2257224187952825	-0.3101333626252136	0.2655416485966599	0.2655416485966597	0.07966621513240826	0.1527777447316691	0.09813920346334781	0.09224283727563622	-0.1660018226358878	-0.1536896550664204	-0.08065635520996019	0.8244493094671754	-0.00857762853074738	0.1347879365272701	-0.4653236020420048	0.8256670044967395	0.8256670044967399	-0.1922136880017209	0.05380624732068676	0.2125155807135325	0.05451872075977026	0.07770136967738735	-0.04935159446090928	0.003392514401011622	-0.215105714991432	0.08031540362950611	-0.03499787916649474	-0.004256372212890359	-29.51705576400461	-16.77023185954739	-14.17208632321669	-1.846305486320126	7.91788942089931	-594.6370296728384	63.75752242969141	-1.96005682313083	-1.621141085709402	-1.090132557451837	9.21440476048209	-0.1117375645180439	1.395872399430185	-4.673528886490173	9.171979855593623	9.171979855593634	-2.063858303055763	0.54765669405386	2.412822149246554	0.6156899187365102	2.959240475323602e-08	-1.189025507512636e-07	-3.790474407384146e-07	-5.670745371959773e-07	1.272977667622403e-07	-8.834301694626486e-07	2.896231051673036e-07
